<svg xmlns="http://www.w3.org/2000/svg" viewBox="0 0 18 18"><g fill="#FFF" fill-rule="nonzero"><path d="M9 1.622c2.403 0 2.688.009 3.637.052.877.04 1.354.187 1.67.31.392.144.745.374 1.036.673.299.29.529.644.673 1.035.123.317.27.794.31 1.671.043.95.052 1.234.052 3.637s-.009 2.688-.052 3.637c-.04.877-.187 1.354-.31 1.671a2.98 2.98 0 01-1.708 1.708c-.317.123-.794.27-1.671.31-.95.043-1.234.053-3.637.053s-2.688-.01-3.637-.053c-.877-.04-1.354-.187-1.671-.31a2.788 2.788 0 01-1.035-.673 2.788 2.788 0 01-.673-1.035c-.123-.317-.27-.794-.31-1.671-.043-.949-.052-1.234-.052-3.637s.009-2.688.052-3.637c.04-.877.187-1.354.31-1.67.144-.392.374-.745.673-1.036.29-.299.644-.529 1.035-.673.317-.123.794-.27 1.671-.31.95-.043 1.234-.052 3.637-.052M9 0C6.556 0 6.25.01 5.29.054 4.33.098 3.676.25 3.104.473c-.6.225-1.145.58-1.594 1.038-.458.45-.813.993-1.039 1.594C.25 3.677.098 4.33.054 5.289.01 6.25 0 6.556 0 9s.01 2.75.054 3.71c.044.959.196 1.613.419 2.185.226.6.58 1.145 1.038 1.594.45.458.993.813 1.594 1.038.572.223 1.227.375 2.184.419C6.25 17.99 6.556 18 9 18s2.75-.01 3.71-.054c.959-.044 1.613-.196 2.185-.419a4.602 4.602 0 002.632-2.632c.223-.572.375-1.226.419-2.184C17.99 11.75 18 11.444 18 9s-.01-2.75-.054-3.71c-.044-.959-.196-1.613-.419-2.185A4.412 4.412 0 0016.49 1.51 4.412 4.412 0 0014.895.472C14.323.25 13.67.098 12.711.054 11.75.01 11.444 0 9 0z"/><path d="M9 4.355a4.645 4.645 0 100 9.29 4.645 4.645 0 000-9.29zm0 7.66a3.015 3.015 0 110-6.03 3.015 3.015 0 010 6.03z"/><circle cx="13.79" cy="4.21" r="1.016"/></g></svg>
