<svg xmlns="http://www.w3.org/2000/svg" width="443" height="121"><g fill="none" fill-rule="evenodd"><path fill="#FF9662" d="M363.19 27.364h23.201v-3.861h-23.2z"/><path fill="#231C19" d="M209.338 5.174h7.902V27.37h4.609V5.174h7.903V.947h-20.414v4.227zm-24.993 0h7.903V27.37h4.608V5.174h7.903V.947h-20.414v4.227zM141.813 27.37h4.61V.947h-4.61V27.37zm-16.62-14.717h-8.48V4.808h8.48c2.428 0 4.404 1.76 4.404 3.922s-1.976 3.922-4.403 3.922zm8.809-3.922c0-4.292-3.951-7.783-8.808-7.783h-13.098v26.41h4.607V16.513h4.558l7.474 10.83.008.013h5.259l-7.544-10.932c4.259-.545 7.544-3.783 7.544-7.694zm-38.345 3.917h-8.48V4.802h8.48c2.428 0 4.403 1.76 4.403 3.923 0 2.162-1.975 3.922-4.403 3.922zm8.808-3.922c0-4.292-3.95-7.784-8.808-7.784H82.56v26.41h4.608V16.508h4.558l7.474 10.83.008.013h5.258l-7.544-10.933c4.259-.545 7.544-3.782 7.544-7.693zm-45.438 9.568L63.23 9.23l4.205 9.064h-8.408zM62.149.941l-.01.007-12.24 26.416h4.884l.038-.008 2.388-5.146h12.042l2.391 5.154h4.865l.049-.008L64.318.941h-2.17zM30.126 15.99L21.754.945H16.47v26.411h4.606V8.665L28.44 22.21l3.37-.001 7.367-13.544v18.692h4.607V.947h-5.286l-8.373 15.043zm137.142 7.378c-5.08 0-9.214-4.134-9.214-9.215 0-5.08 4.134-9.214 9.214-9.214 5.081 0 9.214 4.134 9.214 9.214s-4.133 9.215-9.214 9.215zm0-22.952c-7.587 0-13.738 6.15-13.738 13.737s6.15 13.738 13.738 13.738c7.587 0 13.738-6.15 13.738-13.738 0-7.587-6.15-13.737-13.738-13.737zM374.79 14.939a5.317 5.317 0 0 1-5.312-5.31 5.318 5.318 0 0 1 5.312-5.31 5.317 5.317 0 0 1 5.31 5.31 5.316 5.316 0 0 1-5.31 5.31zm0-14.524c-5.081 0-9.215 4.133-9.215 9.214 0 5.08 4.134 9.214 9.215 9.214 5.08 0 9.213-4.134 9.213-9.214S379.871.415 374.791.415zm-48.104 17.56L311.689.942h-2.3v26.422H314V10.33l14.998 17.034h2.3V.941h-4.61v17.035zm-36.535 5.392c-5.08 0-9.215-4.134-9.215-9.215 0-5.08 4.134-9.214 9.215-9.214 5.08 0 9.214 4.134 9.214 9.214s-4.133 9.215-9.214 9.215zm0-22.952c-7.588 0-13.738 6.15-13.738 13.737s6.15 13.738 13.737 13.738c7.588 0 13.739-6.15 13.739-13.738 0-7.587-6.151-13.737-13.739-13.737zm58.661 18.152L341.175.94h-5.086l11.658 26.422h2.132L361.536.941h-5.086l-7.637 17.626zm-85.88 4.935h-8.48v-7.849h8.48c2.428 0 4.403 1.762 4.403 3.927 0 2.162-1.975 3.922-4.403 3.922zm-8.48-18.699h7.773c2.161 0 3.92 1.569 3.92 3.496 0 1.926-1.759 3.493-3.92 3.493h-7.773V4.803zm14.176 8.842l-.365-.274.314-.323c1.273-1.327 1.974-3.014 1.974-4.75 0-4.056-3.736-7.356-8.326-7.356h-12.391v26.421h13.098c4.857 0 8.809-3.492 8.809-7.783 0-2.289-1.135-4.452-3.113-5.935zM407.702.941L400.03 11.88 392.36.94h-5.269l10.63 15.039v11.384h4.618V15.98l.014-.02L412.969.94h-5.267zM72.11 84.247V61.253h10.765c6.167 0 10.139 4.6 10.139 11.497 0 6.898-3.972 11.497-10.139 11.497H72.11zm33.11 36.095L91.968 92.504c6.166-1.672 12.855-7.63 12.855-19.859 0-12.855-8.257-21.53-20.276-21.53h-24.04v69.714H72.11v-26.34h8.57l11.811 26.34h25.016l26.232-49.805.003 49.805h11.6V51.115H141.44l-36.222 69.227zM3.485 61.253h18.607v59.576h11.496V61.253h18.557V51.115H.46l3.025 10.138zm285.897-10.138h-11.601v69.714h35.745v-10.244h-24.144v-59.47zm-62.59 69.714h38.15v-10.244h-26.549V90.414h25.817V80.171h-25.817V61.253h26.548V51.115h-38.15v69.714zm-35.514-13.692l-15.26-56.022h-12.542l20.799 69.714h13.9l20.8-69.714h-12.542l-15.155 56.022zm132.31 13.692h38.149v-10.244H335.19V90.414h25.816V80.171H335.19V61.253h26.548V51.115h-38.15v69.714zm61.175-36.582V61.253h10.765c6.167 0 10.139 4.6 10.139 11.497 0 6.898-3.972 11.497-10.14 11.497h-10.764zm19.858 8.257c6.166-1.672 12.856-7.63 12.856-19.859 0-12.855-8.257-21.53-20.277-21.53h-24.04v69.714h11.603v-26.34h8.57l11.81 26.34h12.96l-13.482-28.325zM426.075 113.483h-2.603v-1.778h7.216v1.778h-2.603v7.346h-2.01zM431.706 111.704h3.042l2.101 5.954h.026l2.113-5.954h3.03v9.125h-2.012v-7h-.026l-2.397 7h-1.533l-2.307-7h-.026v7h-2.01z"/></g></svg>