<svg xmlns="http://www.w3.org/2000/svg" width="442" height="175"><g fill="none" fill-rule="evenodd"><path fill="#F79662" d="M367.642 27.613h23.506v-3.912h-23.506z"/><path fill="#231B19" d="M211.767 5.132h8.007v22.487h4.67V5.132h8.006V.849h-20.683v4.283zm-25.32 0h8.006v22.487h4.67V5.132h8.006V.849h-20.683v4.283zm-43.092 22.487h4.67V.849h-4.67v26.77zm-16.838-14.911h-8.592V4.76h8.592c2.46 0 4.46 1.783 4.46 3.974 0 2.19-2 3.974-4.46 3.974zm8.924-3.974c0-4.348-4.003-7.885-8.924-7.885h-13.27v26.757h4.668V16.62h4.618l7.572 10.972.01.013h5.326l-7.643-11.076c4.315-.551 7.643-3.832 7.643-7.795zm-38.848 3.968H88V4.755h8.592c2.46 0 4.46 1.783 4.46 3.974 0 2.19-2 3.973-4.46 3.973zm8.924-3.973c0-4.349-4.004-7.886-8.924-7.886h-13.27V27.6h4.667V16.614h4.618l7.573 10.974.009.012h5.327l-7.644-11.076c4.315-.552 7.644-3.832 7.644-7.795zM59.48 18.423l4.258-9.182 4.26 9.182H59.48zM62.644.843l-.011.007-12.4 26.763h4.948l.038-.008 2.42-5.213h12.2l2.423 5.22h4.93l.047-.007L64.841.843h-2.197zM30.2 16.088L21.718.848h-5.355v26.757h4.666V8.668l7.463 13.724 3.416-.001L39.37 8.668v18.937h4.668V.848h-5.355L30.2 16.089zm138.945 7.475c-5.147 0-9.336-4.188-9.336-9.335 0-5.148 4.189-9.336 9.336-9.336 5.148 0 9.335 4.188 9.335 9.336 0 5.147-4.187 9.335-9.335 9.335zm0-23.254c-7.687 0-13.919 6.232-13.919 13.919s6.232 13.918 13.919 13.918 13.918-6.231 13.918-13.918c0-7.687-6.231-13.919-13.918-13.919zm210.25 14.717a5.388 5.388 0 0 1-5.38-5.381 5.388 5.388 0 0 1 5.38-5.38 5.387 5.387 0 0 1 5.38 5.38 5.387 5.387 0 0 1-5.38 5.38zm0-14.717c-5.147 0-9.335 4.188-9.335 9.336 0 5.147 4.188 9.335 9.336 9.335 5.147 0 9.335-4.188 9.335-9.335 0-5.148-4.188-9.336-9.335-9.336zM330.66 18.102L315.465.843h-2.33v26.77h4.67V10.354L333 27.612h2.33V.843h-4.67v17.26zm-37.016 5.461c-5.147 0-9.335-4.188-9.335-9.335 0-5.148 4.188-9.336 9.335-9.336 5.147 0 9.335 4.188 9.335 9.336 0 5.147-4.188 9.335-9.335 9.335zm0-23.254c-7.687 0-13.918 6.232-13.918 13.919s6.23 13.918 13.918 13.918c7.687 0 13.918-6.231 13.918-13.918 0-7.687-6.23-13.919-13.918-13.919zm59.433 18.392L345.34.843h-5.154l11.812 26.77h2.16l11.81-26.77h-5.153l-7.737 17.858zm-87.01 5h-8.591v-7.952h8.592c2.46 0 4.46 1.784 4.46 3.977 0 2.192-2 3.974-4.46 3.974zm-8.591-18.945h7.875c2.19 0 3.97 1.589 3.97 3.54 0 1.953-1.78 3.54-3.97 3.54h-7.875v-7.08zm14.362 8.958l-.37-.278.319-.327c1.289-1.345 2-3.054 2-4.812 0-4.11-3.785-7.454-8.436-7.454h-12.553v26.769h13.27c4.92 0 8.924-3.537 8.924-7.886 0-2.318-1.15-4.51-3.154-6.012zM412.74.843l-7.773 11.081L397.195.843h-5.337l10.77 15.237v11.533h4.678V16.08l.014-.02L418.076.843h-5.336zM83.642 85.245H72.735V61.948h10.907c6.248 0 10.272 4.66 10.272 11.648 0 6.99-4.024 11.649-10.272 11.649zm22.638 36.569L92.855 93.61c6.248-1.694 13.025-7.73 13.025-20.12 0-13.025-8.366-21.814-20.543-21.814H60.982v70.63h11.753V95.622h8.684l11.966 26.684h25.345l26.576-50.459.004 50.46h11.752v-70.63h-14.084l-36.698 70.137zM3.21 61.948h18.85v60.358H33.71V61.948h18.8V51.677H.144l3.064 10.27zm289.656-10.271H281.11v70.63h36.216v-10.378h-24.461V51.677zm-63.414 70.63h38.651v-10.378h-26.897V91.492h26.155V81.114h-26.155V61.948h26.897V51.677h-38.65v70.63zm-35.98-13.872L178.01 51.677h-12.707l21.072 70.63h14.084l21.072-70.63h-12.706l-15.355 56.758zm134.048 13.871h38.651V111.93h-26.897V91.492h26.156V81.114h-26.156V61.948h26.897V51.677h-38.65v70.63zm72.887-37.061h-10.908V61.948h10.908c6.247 0 10.271 4.66 10.271 11.648 0 6.99-4.024 11.649-10.271 11.649zm9.213 8.365c6.247-1.694 13.024-7.73 13.024-20.12 0-13.025-8.366-21.813-20.543-21.813h-24.355v70.63h11.753V95.621h8.684l11.966 26.684h13.13l-13.66-28.696zM154.737 146.904h18.183v3.572h-14.124v7.914h13.84v3.572h-13.84v8.441h14.124v3.572h-18.183zM179.454 167.035c1.827 2.028 4.75 3.814 8.524 3.814 4.383 0 5.925-2.232 5.925-4.18 0-2.84-3.084-3.652-6.534-4.545-4.343-1.137-9.375-2.395-9.375-7.914 0-4.465 3.936-7.712 9.578-7.712 4.18 0 7.468 1.34 9.862 3.775l-2.354 3.003c-2.07-2.192-4.91-3.165-7.833-3.165-3.003 0-5.073 1.542-5.073 3.815 0 2.434 2.922 3.206 6.29 4.057 4.424 1.178 9.579 2.558 9.579 8.32 0 4.222-2.922 8.159-10.228 8.159-4.83 0-8.36-1.745-10.674-4.302l2.313-3.125zM214.44 150.476h-6.82v9.497h6.82c2.921 0 4.99-1.908 4.99-4.749 0-2.84-2.069-4.748-4.99-4.748zm-10.878-3.572h11.405c5.56 0 8.644 3.815 8.644 8.32 0 4.505-3.124 8.32-8.644 8.32h-7.346v10.43h-4.059v-27.07zM230.552 164.762h10.918l-5.48-14.327-5.438 14.327zm12.095 3.611h-13.273l-2.19 5.602h-4.465l10.755-27.071h5.073l10.756 27.07h-4.465l-2.191-5.6zM262.33 141.263c-1.014 0-1.826.974-1.826 3.206h-2.07c0-3.247 1.42-5.44 4.06-5.44 1.582 0 2.352 1.057 3.042 1.99.569.771 1.055 1.461 1.868 1.461 1.014 0 1.785-.974 1.785-3.206h2.11c0 3.247-1.42 5.438-4.058 5.438-1.623 0-2.395-1.054-3.084-1.99-.528-.77-1.015-1.459-1.826-1.459zm-4.91 11.932v20.78h-4.06v-27.07h4.181l14.733 20.292v-20.293h4.058v27.071h-3.936l-14.977-20.78zM295.652 150.07c-5.804 0-9.457 4.423-9.457 10.39 0 5.925 3.653 10.39 9.457 10.39 5.722 0 9.456-4.465 9.456-10.39 0-5.967-3.734-10.39-9.456-10.39m0-3.612c8.076 0 13.637 5.966 13.637 14.001 0 8.037-5.56 14.003-13.637 14.003-8.077 0-13.637-5.966-13.637-14.003 0-8.035 5.56-14 13.637-14M315.01 146.904h4.058v23.499h12.298v3.572H315.01zM110.19 162.06a8.24 8.24 0 0 0-.41-2.375 5.25 5.25 0 0 0-1.102-1.878c-.489-.532-1.1-.949-1.834-1.251-.734-.302-1.59-.454-2.569-.454-.95 0-1.82.18-2.612.54a6.355 6.355 0 0 0-3.28 3.324c-.303.706-.454 1.403-.454 2.094h12.26zm-12.261 3.108c0 .893.194 1.705.583 2.44.388.733.899 1.36 1.532 1.877a7.079 7.079 0 0 0 2.202 1.209 7.885 7.885 0 0 0 2.59.432c1.21 0 2.26-.28 3.152-.842.891-.561 1.712-1.302 2.46-2.224l2.936 2.246c-2.158 2.791-5.18 4.187-9.066 4.187-1.612 0-3.072-.274-4.381-.82-1.31-.546-2.418-1.302-3.325-2.267a10.035 10.035 0 0 1-2.094-3.41c-.489-1.31-.733-2.727-.733-4.252 0-1.526.266-2.943.798-4.253a10.548 10.548 0 0 1 2.202-3.41 10.05 10.05 0 0 1 3.346-2.267c1.295-.546 2.705-.82 4.23-.82 1.814 0 3.346.317 4.598.95 1.252.633 2.28 1.46 3.087 2.482a9.805 9.805 0 0 1 1.748 3.454c.36 1.28.54 2.583.54 3.907v1.381H97.929zM118.996 153.512h3.885v3.151h.087c.49-1.093 1.338-1.978 2.547-2.654 1.209-.676 2.605-1.015 4.188-1.015a8.89 8.89 0 0 1 2.827.453c.907.302 1.698.77 2.375 1.403.676.634 1.215 1.447 1.618 2.44.403.992.605 2.165.605 3.518v13.167h-3.885v-12.088c0-.95-.13-1.762-.39-2.439-.258-.676-.603-1.223-1.035-1.64a3.896 3.896 0 0 0-1.49-.907 5.485 5.485 0 0 0-1.748-.28c-.806 0-1.554.129-2.245.388-.69.259-1.295.67-1.813 1.23-.518.562-.922 1.274-1.209 2.137-.287.863-.432 1.886-.432 3.065v10.534h-3.885v-20.463zM429.244 116.467h-2.069v-1.414h5.737v1.414h-2.07v5.84h-1.598zM433.721 115.054h2.417l1.67 4.732h.02l1.681-4.732h2.407v7.252h-1.598v-5.562h-.021l-1.905 5.562h-1.219l-1.834-5.562h-.02v5.562h-1.598z"/></g></svg>