<svg xmlns="http://www.w3.org/2000/svg" width="239" height="119"><g fill="none" fill-rule="evenodd" transform="translate(2)"><path fill="#000" fill-rule="nonzero" d="M14.5 8.5c.3.1.4.5.2.8-.1.1-.1.2-.2.2l-11.4 7c-.5.3-.8.1-.8-.5V2c0-.5.4-.8.8-.5l11.4 7zM22 1h2.2c.6 0 1 .4 1 1v14c0 .6-.4 1-1 1H22c-.6 0-1-.4-1-1V2c0-.5.4-1 1-1zm9.8 0H34c.6 0 1 .4 1 1v14c0 .6-.4 1-1 1h-2.2c-.6 0-1-.4-1-1V2c0-.5.4-1 1-1zM79 1.4c0-.6.4-1 1-1h5.4c.6 0 .7.3.3.7l-6 6c-.4.4-.7.3-.7-.3V1.4zm0 15.8c0 .6.4 1 1 1h5.4c.6 0 .7-.3.3-.7l-6-6c-.4-.4-.7-.3-.7.3v5.4zM96.8 1.4c0-.6-.4-1-1-1h-5.4c-.6 0-.7.3-.3.7l6 6c.4.4.7.3.7-.3V1.4zm0 15.8c0 .6-.4 1-1 1h-5.4c-.6 0-.7-.3-.3-.7l6-6c.4-.4.7-.3.7.3v5.4zM110.7 5c0 .6.4 1 1 1h4.1c.6 0 .7-.3.3-.7L111.4.6c-.4-.4-.7-.3-.7.3V5zm-7.1 1c.6 0 1-.4 1-1V.9c0-.6-.3-.7-.7-.3l-4.7 4.7c-.4.4-.3.7.3.7h4.1zm1 7.1c0-.6-.4-1-1-1h-4.1c-.6 0-.7.3-.3.7l4.7 4.7c.4.4.7.3.7-.3v-4.1zm7.1-1c-.6 0-1 .4-1 1v4.1c0 .5.3.7.7.3l4.7-4.7c.4-.4.3-.7-.3-.7h-4.1zM65 5.8c-.5.4-1.2.6-1.8.6H60c-.6 0-1 .4-1 1v5.7c0 .6.4 1 1 1h4.2c.3.2.5.4.8.6l3.5 2.6c.4.3.8.1.8-.4V3.5c0-.5-.4-.7-.8-.4L65 5.8z"/><path stroke="#000" stroke-linecap="round" stroke-width="1.5" d="M71.9 2.5s3.9-.8 3.9 7.7-3.9 7.8-3.9 7.8"/><path stroke="#000" stroke-linecap="round" stroke-width="1.5" d="M70.6 6.4s2.6-.4 2.6 3.8-2.6 3.9-2.6 3.9"/><path fill="#000" fill-rule="nonzero" d="M45 5.8c-.5.4-1.2.6-1.8.6H40c-.6 0-1 .4-1 1v5.7c0 .6.4 1 1 1h4.2c.3.2.5.4.8.6l3.5 2.6c.4.3.8.1.8-.4V3.5c0-.5-.4-.7-.8-.4L45 5.8z"/><path stroke="#000" stroke-linecap="round" stroke-width="2" d="M50.8 7l5.4 5.4m-5.4 0L56.2 7"/><path stroke="#FFF" d="M126.7 8.6c-6.2-4.2-6.5 7.8 0 3.9m6.5-3.9c-6.2-4.2-6.5 7.8 0 3.9"/><path fill="#FFF" fill-rule="nonzero" d="M120.2 3.4h15.7v13.1h-15.7V3.4zM118.8 2v15.7h18.3V2h-18.3zM141.2 3h14c1.1 0 2 .9 2 2v10c0 1.1-.9 2-2 2h-14c-1.1 0-2-.9-2-2V5c0-1.1.9-2 2-2z"/><path fill="#231F20" fill-rule="nonzero" d="M144.4 13.8c-.8 0-1.6-.4-2.1-1-1.1-1.4-1-3.4.1-4.8.5-.6 2-1.7 4.6.2l-.6.8c-1.4-1-2.6-1.1-3.3-.3-.8 1-.8 2.4-.1 3.5.7.9 1.9.8 3.4-.1l.5.9c-.7.5-1.6.7-2.5.8zm7.5 0c-.8 0-1.6-.4-2.1-1-1.1-1.4-1-3.4.1-4.8.5-.6 2-1.7 4.6.2l-.5.8c-1.4-1-2.6-1.1-3.3-.3-.8 1-.8 2.4-.1 3.5.7.9 1.9.8 3.4-.1l.5.9c-.8.5-1.7.7-2.6.8z"/><path fill="#FFF" fill-rule="nonzero" d="M58.3 77c.6.2.8.8.6 1.4-.1.3-.3.5-.6.6L28 96.5c-1 .6-1.7.1-1.7-1v-35c0-1.1.8-1.5 1.7-1L58.3 77z"/><path stroke="#FFF" stroke-width="5" d="M.5 79C.5 58.3 17.3 41.5 38 41.5S75.5 58.3 75.5 79 58.7 116.5 38 116.5.5 99.7.5 79z" opacity=".75"/><path fill="#FFF" fill-rule="nonzero" d="M138.3 77c.6.2.8.8.6 1.4-.1.3-.3.5-.6.6L108 96.5c-1 .6-1.7.1-1.7-1v-35c0-1.1.8-1.5 1.7-1L138.3 77z"/><path stroke="#FFF" stroke-width="5" d="M80.5 79c0-20.7 16.8-37.5 37.5-37.5s37.5 16.8 37.5 37.5-16.8 37.5-37.5 37.5S80.5 99.7 80.5 79z"/><circle cx="199.9" cy="47.1" r="8.1" fill="#FFF" fill-rule="nonzero"/><circle cx="231.9" cy="79" r="5" fill="#FFF" fill-rule="nonzero" opacity=".4"/><circle cx="199.9" cy="110.9" r="6" fill="#FFF" fill-rule="nonzero" opacity=".6"/><circle cx="168.1" cy="79" r="7" fill="#FFF" fill-rule="nonzero" opacity=".8"/><circle cx="176.2" cy="56.3" r="7.5" fill="#FFF" fill-rule="nonzero" opacity=".9"/><circle cx="224.3" cy="56.1" r="4.5" fill="#FFF" fill-rule="nonzero" opacity=".3"/><circle cx="223.8" cy="102.8" r="5.5" fill="#FFF" fill-rule="nonzero" opacity=".5"/><circle cx="176.2" cy="102.8" r="6.5" fill="#FFF" fill-rule="nonzero" opacity=".7"/><path fill="#000" fill-rule="nonzero" d="M176 9.4c0 .4-.4.7-.9.7-.1 0-.2 0-.2-.1L170 8.2c-.5-.2-.6-.6-.1-.8l6.2-3.6c.5-.3.8-.1.7.5l-.8 5.1z"/><path fill="#000" fill-rule="nonzero" d="M167.4 15.9c-1 0-2-.2-2.9-.7-2-1-3.2-3-3.2-5.2.1-3.4 2.9-6 6.3-6 2.5.1 4.8 1.7 5.6 4.1l.1-.1 2.1 1.1c-.6-4.4-4.7-7.5-9.1-6.9-3.9.6-6.9 3.9-7 7.9 0 2.9 1.7 5.6 4.3 7 1.2.6 2.5.9 3.8 1 2.6 0 5-1.2 6.6-3.3l-1.8-.9c-1.2 1.2-3 2-4.8 2zM181.4 3.2c.8 0 1.5.7 1.5 1.5s-.7 1.5-1.5 1.5-1.5-.7-1.5-1.5c0-.9.7-1.5 1.5-1.5zm5.1 0h8.5c.9 0 1.5.7 1.5 1.5s-.7 1.5-1.5 1.5h-8.5c-.9 0-1.5-.7-1.5-1.5-.1-.9.6-1.5 1.5-1.5zm-5.1 5c.8 0 1.5.7 1.5 1.5s-.7 1.5-1.5 1.5-1.5-.7-1.5-1.5c0-.9.7-1.5 1.5-1.5zm5.1 0h8.5c.9 0 1.5.7 1.5 1.5s-.7 1.5-1.5 1.5h-8.5c-.9 0-1.5-.7-1.5-1.5-.1-.9.6-1.5 1.5-1.5zm-5.1 5c.8 0 1.5.7 1.5 1.5s-.7 1.5-1.5 1.5-1.5-.7-1.5-1.5c0-.9.7-1.5 1.5-1.5zm5.1 0h8.5c.9 0 1.5.7 1.5 1.5s-.7 1.5-1.5 1.5h-8.5c-.9 0-1.5-.7-1.5-1.5-.1-.9.6-1.5 1.5-1.5z"/></g></svg>