<svg xmlns="http://www.w3.org/2000/svg" viewBox="0 0 14 18"><path fill="#FFF" fill-rule="nonzero" d="M7.18 0C2.405 0 0 3.516 0 6.449c0 1.775.654 3.355 2.057 3.943.23.097.436.004.503-.258.046-.181.156-.638.205-.829.067-.259.041-.35-.144-.575-.405-.49-.663-1.125-.663-2.024 0-2.61 1.899-4.945 4.946-4.945 2.697 0 4.18 1.694 4.18 3.956 0 2.977-1.283 5.489-3.185 5.489-1.051 0-1.838-.893-1.586-1.989.302-1.307.887-2.719.887-3.662 0-.845-.441-1.55-1.355-1.55-1.074 0-1.937 1.142-1.937 2.672 0 .974.32 1.633.32 1.633l-1.292 5.625c-.384 1.67-.058 3.716-.03 3.923.016.122.17.152.239.059.099-.133 1.378-1.756 1.813-3.378.123-.46.707-2.838.707-2.838.349.685 1.369 1.287 2.454 1.287 3.229 0 5.42-3.025 5.42-7.074C13.539 2.852 11.015 0 7.179 0z"/></svg>
