<svg xmlns="http://www.w3.org/2000/svg" xmlns:xlink="http://www.w3.org/1999/xlink" width="600" height="2700">
	<defs>
		<symbol id="audio-on">
			<path fill-rule="evenodd" d="M150 300c82.843 0 150-67.157 150-150S232.843 0 150 0 0 67.157 0 150s67.157 150 150 150zM57.5 118h2c3.038 0 5.5 2.462 5.5 5.5v54c0 3.038-2.462 5.5-5.5 5.5h-2c-3.038 0-5.5-2.462-5.5-5.5v-54c0-3.038 2.462-5.5 5.5-5.5zm84.43-40.57v145.713c0 2.32-.85 4.33-2.546 6.027-1.697 1.696-3.705 2.544-6.027 2.544-2.32 0-4.33-.848-6.027-2.544l-44.598-44.6h-5.09c-2.32 0-4.33-.847-6.026-2.543-1.696-1.697-2.545-3.706-2.545-6.027v-51.43c0-2.32.85-4.33 2.55-6.025 1.7-1.697 3.71-2.545 6.03-2.545h5.09l44.6-44.598c1.7-1.697 3.71-2.545 6.03-2.545s4.33.848 6.03 2.545c1.7 1.696 2.55 3.705 2.55 6.027zm45.668 53.838c3.84 5.893 5.76 12.232 5.76 19.018 0 6.785-1.898 13.102-5.693 18.95-3.794 5.85-8.817 10.023-15.067 12.523-.893.44-2.01.67-3.348.67-2.32 0-4.33-.83-6.027-2.48-1.696-1.65-2.544-3.69-2.544-6.1 0-1.88.53-3.46 1.6-4.76s2.36-2.41 3.88-3.35c1.51-.94 3.03-1.97 4.55-3.08 1.51-1.12 2.81-2.7 3.88-4.76 1.07-2.06 1.6-4.6 1.6-7.64s-.538-5.58-1.61-7.636c-1.07-2.053-2.366-3.64-3.884-4.754-1.516-1.116-3.033-2.143-4.55-3.08-1.52-.94-2.815-2.054-3.886-3.35-1.07-1.294-1.605-2.88-1.605-4.754 0-2.41.846-4.44 2.542-6.09 1.7-1.65 3.71-2.48 6.03-2.48 1.34 0 2.454.225 3.35.67 6.25 2.41 11.25 6.564 15 12.457zm28.66-18.75c7.59 11.518 11.385 24.107 11.385 37.768 0 13.66-3.795 26.272-11.384 37.835-7.59 11.57-17.64 19.98-30.14 25.25-1.16.45-2.28.67-3.35.67-2.41 0-4.47-.85-6.16-2.54-1.7-1.69-2.55-3.7-2.55-6.02 0-3.48 1.74-6.11 5.22-7.9 5-2.59 8.39-4.55 10.18-5.89 6.6-4.82 11.76-10.87 15.47-18.15 3.7-7.27 5.55-15.02 5.55-23.23s-1.86-15.96-5.56-23.233c-3.71-7.28-8.86-13.33-15.47-18.15-1.79-1.34-5.18-3.303-10.18-5.892-3.485-1.785-5.226-4.42-5.226-7.9 0-2.32.85-4.33 2.55-6.03 1.695-1.695 3.703-2.543 6.025-2.543 1.16 0 2.32.225 3.485.67 12.5 5.27 22.547 13.707 30.136 25.314zm28.662-18.75c11.34 17.143 17.01 35.982 17.01 56.518s-5.67 39.397-17.01 56.585c-11.34 17.19-26.43 29.85-45.268 37.97-1.16.45-2.322.67-3.482.67-2.322 0-4.33-.85-6.027-2.54s-2.545-3.7-2.545-6.02c0-3.21 1.74-5.85 5.223-7.9.63-.35 1.63-.82 3.02-1.4 1.39-.58 2.39-1.05 3.02-1.4 4.11-2.23 7.77-4.51 10.98-6.83 10.99-8.124 19.56-18.26 25.72-30.4 6.16-12.14 9.24-25.043 9.24-38.703s-3.08-26.563-9.24-38.706c-6.16-12.14-14.73-22.274-25.71-30.4-3.21-2.32-6.87-4.6-10.98-6.83-.62-.357-1.63-.826-3.01-1.406s-2.39-1.05-3.01-1.403c-3.48-2.06-5.222-4.69-5.222-7.906 0-2.324.85-4.33 2.55-6.03 1.695-1.695 3.704-2.543 6.026-2.543 1.16 0 2.32.225 3.48.67 18.84 8.126 33.928 20.805 45.268 38.037z"/>
		</symbol>
		<symbol id="audio-off">
			<path fill-rule="evenodd" d="M150 300c82.843 0 150-67.157 150-150S232.843 0 150 0 0 67.157 0 150s67.157 150 150 150zM57.5 118h2c3.038 0 5.5 2.462 5.5 5.5v54c0 3.038-2.462 5.5-5.5 5.5h-2c-3.038 0-5.5-2.462-5.5-5.5v-54c0-3.038 2.462-5.5 5.5-5.5zm84.43-40.57v145.713c0 2.32-.85 4.33-2.546 6.027-1.697 1.696-3.705 2.544-6.027 2.544-2.32 0-4.33-.848-6.027-2.544l-44.598-44.6h-5.09c-2.32 0-4.33-.847-6.026-2.543-1.696-1.697-2.545-3.706-2.545-6.027v-51.43c0-2.32.85-4.33 2.548-6.025 1.697-1.697 3.705-2.545 6.027-2.545h5.09l44.597-44.598c1.698-1.697 3.707-2.545 6.028-2.545 2.322 0 4.33.848 6.027 2.545 1.696 1.696 2.545 3.705 2.545 6.027zm108.362 37.115c.27-2.64-.223-4.585-1.477-5.84-1.244-1.243-3.303-1.87-6.177-1.88-.8-.003-1.567.313-2.132.878L206.5 141.71l-34.042-34.043c-.554-.554-1.304-.87-2.088-.878-2.456-.03-4.337.61-5.642 1.914-1.305 1.305-1.95 3.19-1.933 5.656.005.79.32 1.545.878 2.103L197.71 150.5l-34.03 34.028c-.552.554-.868 1.302-.877 2.085-.035 2.855.607 4.942 1.925 6.26 1.33 1.33 3.292 1.815 5.882 1.453.645-.09 1.244-.39 1.705-.85L206.5 159.29l34.15 34.152c.476.475 1.097.777 1.765.857 2.96.352 5.094-.124 6.4-1.43 1.305-1.305 1.797-3.45 1.474-6.436-.077-.68-.38-1.315-.865-1.8L215.29 150.5l34.14-34.138c.487-.488.792-1.13.862-1.817z"/>
		</symbol>
		<symbol id="play">
			<path fill-rule="evenodd" d="M75.252 20.546C98.3 7.134 123.43.43 150.642.43c27.215 0 52.312 6.704 75.294 20.116 22.982 13.41 41.178 31.608 54.59 54.59 13.41 22.98 20.117 48.08 20.117 75.293 0 27.21-6.706 52.31-20.117 75.29-13.412 22.98-31.608 41.18-54.59 54.59-22.982 13.41-48.08 20.115-75.293 20.115-27.214 0-52.31-6.707-75.293-20.12-22.982-13.41-41.178-31.607-54.59-54.588C7.35 202.74.643 177.64.643 150.43c0-27.215 6.706-52.313 20.117-75.294 13.412-22.982 31.575-41.18 54.492-54.59zm150.39 140.625c4.168-2.34 6.25-5.92 6.25-10.74s-2.082-8.4-6.25-10.74l-106.25-62.5c-4.036-2.474-8.202-2.54-12.5-.195-4.166 2.475-6.25 6.12-6.25 10.94v125c0 4.816 2.084 8.462 6.25 10.936 2.084 1.04 4.168 1.563 6.25 1.563 2.214 0 4.298-.586 6.25-1.76l106.25-62.5z"/>
		</symbol>
		<symbol id="pause">
			<path fill-rule="evenodd" d="M137.5 206.25V93.75c0-1.823-.586-3.32-1.758-4.492-1.172-1.172-2.67-1.758-4.492-1.758h-50c-1.823 0-3.32.586-4.492 1.758C75.586 90.43 75 91.928 75 93.75v112.5c0 1.823.586 3.32 1.758 4.492 1.172 1.172 2.67 1.758 4.492 1.758h50c1.823 0 3.32-.586 4.492-1.758 1.172-1.172 1.758-2.67 1.758-4.492zm87.5 0V93.75c0-1.823-.586-3.32-1.758-4.492-1.172-1.172-2.67-1.758-4.492-1.758h-50c-1.823 0-3.32.586-4.492 1.758-1.172 1.172-1.758 2.67-1.758 4.492v112.5c0 1.823.586 3.32 1.758 4.492 1.172 1.172 2.67 1.758 4.492 1.758h50c1.823 0 3.32-.586 4.492-1.758 1.172-1.172 1.758-2.67 1.758-4.492zm54.883-131.445C293.293 97.72 300 122.785 300 150c0 27.214-6.706 52.31-20.117 75.293-13.412 22.982-31.608 41.178-54.59 54.59C202.31 293.293 177.213 300 150 300c-27.214 0-52.31-6.706-75.293-20.117-22.982-13.412-41.178-31.608-54.59-54.59C6.707 202.31 0 177.213 0 150c0-27.214 6.706-52.31 20.117-75.293 13.412-22.982 31.608-41.178 54.59-54.59C97.69 6.707 122.787 0 150 0c27.214 0 52.31 6.706 75.293 20.117 22.982 13.412 41.178 31.64 54.59 54.688z"/>
		</symbol>
		<symbol id="video">
			<path fill-rule="evenodd" d="M300 16.786V198.93c0 4.686-2.176 7.978-6.53 9.876-1.45.558-2.845.837-4.184.837-3.014 0-5.525-1.06-7.534-3.18l-67.466-67.467v27.79c0 13.28-4.716 24.637-14.146 34.068-9.43 9.43-20.787 14.146-34.07 14.146H48.215c-13.28 0-24.637-4.715-34.068-14.146C4.717 191.424 0 180.067 0 166.786V48.93c0-13.283 4.715-24.64 14.146-34.07C23.576 5.43 34.933.714 48.214.714H166.07c13.283 0 24.64 4.716 34.07 14.146s14.146 20.787 14.146 34.07v27.62l67.466-67.298c2.01-2.12 4.52-3.18 7.534-3.18 1.34 0 2.734.278 4.185.836 4.356 1.898 6.53 5.19 6.53 9.878z"/>
		</symbol>
	</defs>
	<use xlink:href="#audio-on" x="0" y="0" fill="#8B9E4A" />
	<use xlink:href="#audio-on" x="0" y="300" fill="#FFFFFF" />
	<use xlink:href="#audio-on" x="0" y="600" fill="#000000" />
	<use xlink:href="#audio-off" x="300" y="0" fill="#8B9E4A" />
	<use xlink:href="#audio-off" x="300" y="300" fill="#FFFFFF" />
	<use xlink:href="#audio-off" x="300" y="600" fill="#000000" />
	<use xlink:href="#play" x="0" y="900" fill="#8B9E4A" />
	<use xlink:href="#play" x="0" y="1200" fill="#FFFFFF" />
	<use xlink:href="#play" x="0" y="1500" fill="#000000" />
	<use xlink:href="#pause" x="300" y="900" fill="#8B9E4A" />
	<use xlink:href="#pause" x="300" y="1200" fill="#FFFFFF" />
	<use xlink:href="#pause" x="300" y="1500" fill="#000000" />
	<use xlink:href="#video" x="0" y="1800" fill="#D1D1D1" />
	<use xlink:href="#video" x="0" y="2100" fill="#FFFFFF" />
	<use xlink:href="#video" x="0" y="2400" fill="#000000" />
</svg>
