<svg xmlns="http://www.w3.org/2000/svg" viewBox="0 0 300 300"><path fill="#FFF" fill-rule="evenodd" d="M150 300c82.843 0 150-67.157 150-150S232.843 0 150 0 0 67.157 0 150s67.157 150 150 150zM57.5 118h2c3.038 0 5.5 2.462 5.5 5.5v54c0 3.038-2.462 5.5-5.5 5.5h-2c-3.038 0-5.5-2.462-5.5-5.5v-54c0-3.038 2.462-5.5 5.5-5.5zm84.43-40.57v145.713c0 2.32-.85 4.33-2.546 6.027-1.697 1.696-3.705 2.544-6.027 2.544-2.32 0-4.33-.848-6.027-2.544l-44.598-44.6h-5.09c-2.32 0-4.33-.847-6.026-2.543-1.696-1.697-2.545-3.706-2.545-6.027v-51.43c0-2.32.85-4.33 2.546-6.025 1.697-1.697 3.705-2.545 6.027-2.545h5.09l44.597-44.598c1.697-1.697 3.706-2.545 6.027-2.545 2.322 0 4.33.848 6.027 2.545 1.696 1.696 2.545 3.705 2.545 6.027zm45.668 53.838c3.84 5.893 5.76 12.232 5.76 19.018 0 6.785-1.898 13.102-5.693 18.95-3.794 5.85-8.817 10.023-15.067 12.523-.893.445-2.01.67-3.348.67-2.32 0-4.33-.827-6.027-2.48-1.696-1.65-2.544-3.682-2.544-6.093 0-1.875.534-3.46 1.606-4.754 1.07-1.295 2.366-2.41 3.884-3.35 1.518-.936 3.035-1.963 4.553-3.08 1.518-1.115 2.813-2.7 3.884-4.753 1.072-2.054 1.607-4.6 1.607-7.634 0-3.036-.535-5.58-1.607-7.634-1.07-2.054-2.366-3.64-3.884-4.755-1.518-1.116-3.035-2.143-4.553-3.08-1.518-.938-2.813-2.054-3.884-3.348-1.072-1.296-1.607-2.88-1.607-4.756 0-2.41.847-4.442 2.543-6.093 1.697-1.65 3.706-2.477 6.027-2.477 1.34 0 2.455.223 3.348.67 6.25 2.41 11.25 6.562 15 12.455zm28.66-18.75c7.59 11.518 11.385 24.107 11.385 37.768 0 13.66-3.795 26.272-11.384 37.835-7.59 11.563-17.635 19.978-30.135 25.246-1.16.447-2.277.67-3.348.67-2.41 0-4.464-.848-6.16-2.545-1.697-1.695-2.546-3.704-2.546-6.026 0-3.482 1.742-6.116 5.225-7.9 5-2.59 8.392-4.555 10.178-5.894 6.607-4.822 11.764-10.87 15.47-18.148 3.704-7.277 5.557-15.022 5.557-23.236 0-8.215-1.853-15.96-5.558-23.237-3.705-7.278-8.862-13.327-15.47-18.148-1.785-1.34-5.177-3.304-10.177-5.893-3.483-1.787-5.224-4.42-5.224-7.903 0-2.32.85-4.33 2.546-6.027 1.697-1.696 3.705-2.544 6.027-2.544 1.16 0 2.32.223 3.482.67 12.5 5.267 22.545 13.705 30.134 25.312zm28.662-18.75c11.34 17.143 17.01 35.982 17.01 56.518s-5.67 39.397-17.01 56.585c-11.34 17.188-26.43 29.844-45.268 37.97-1.16.446-2.322.67-3.482.67-2.322 0-4.33-.85-6.027-2.546-1.697-1.696-2.545-3.705-2.545-6.026 0-3.215 1.74-5.85 5.223-7.902.626-.357 1.63-.826 3.015-1.407 1.384-.58 2.388-1.05 3.013-1.407 4.107-2.232 7.768-4.51 10.982-6.83 10.983-8.125 19.554-18.26 25.715-30.402 6.16-12.142 9.24-25.044 9.24-38.704s-3.08-26.563-9.24-38.706c-6.16-12.143-14.732-22.276-25.715-30.4-3.214-2.323-6.875-4.6-10.982-6.832-.625-.357-1.63-.826-3.013-1.406-1.384-.58-2.39-1.05-3.014-1.406-3.48-2.054-5.222-4.688-5.222-7.902 0-2.322.848-4.33 2.545-6.027 1.696-1.696 3.705-2.544 6.027-2.544 1.16 0 2.32.223 3.482.67 18.84 8.124 33.928 20.803 45.268 38.035z"/></svg>
