<svg xmlns="http://www.w3.org/2000/svg" viewBox="0 0 18 15"><path fill="#FFF" fill-rule="nonzero" d="M18 1.77c-.662.3-1.374.504-2.12.595A3.773 3.773 0 0017.502.276a7.295 7.295 0 01-2.345.916A3.65 3.65 0 0012.462 0C10.422 0 8.77 1.69 8.77 3.776c0 .296.033.584.096.86-3.07-.157-5.79-1.66-7.612-3.945a3.823 3.823 0 00-.5 1.898c0 1.31.652 2.466 1.643 3.143A3.617 3.617 0 01.723 5.26v.048c0 1.829 1.273 3.355 2.962 3.702a3.62 3.62 0 01-1.667.065c.47 1.5 1.833 2.592 3.45 2.622A7.306 7.306 0 010 13.261a10.286 10.286 0 005.66 1.696c6.793 0 10.508-5.754 10.508-10.743 0-.164-.004-.327-.01-.489A7.596 7.596 0 0018 1.771z"/></svg>
